<svg width="32" height="32" viewBox="0 0 100 100" xmlns="http://www.w3.org/2000/svg">
  <!-- Gradient Definitions -->
  <defs>
    <linearGradient id="primaryGradient" x1="0%" y1="0%" x2="100%" y2="100%">
      <stop offset="0%" stop-color="#06B6D4" />
      <stop offset="50%" stop-color="#3B82F6" />
      <stop offset="100%" stop-color="#8B5CF6" />
    </linearGradient>
    <linearGradient id="glowGradient" x1="0%" y1="0%" x2="100%" y2="100%">
      <stop offset="0%" stop-color="#00FFFF" stop-opacity="0.8" />
      <stop offset="100%" stop-color="#0080FF" stop-opacity="0.4" />
    </linearGradient>
    <radialGradient id="centerGlow" cx="50%" cy="50%" r="50%">
      <stop offset="0%" stop-color="#FFFFFF" stop-opacity="0.9" />
      <stop offset="70%" stop-color="#06B6D4" stop-opacity="0.6" />
      <stop offset="100%" stop-color="#1E40AF" stop-opacity="0.3" />
    </radialGradient>
  </defs>

  <!-- Background Circle -->
  <circle cx="50" cy="50" r="48" fill="url(#primaryGradient)" opacity="0.1" />
  
  <!-- Outer Hexagonal Ring -->
  <polygon 
    points="50,5 85,25 85,75 50,95 15,75 15,25" 
    fill="none" 
    stroke="url(#primaryGradient)" 
    stroke-width="3"
  />

  <!-- Inner Circuit Pattern -->
  <g stroke="url(#glowGradient)" stroke-width="1.5" fill="none">
    <!-- Circuit Lines -->
    <path d="M20,30 L35,30 L35,45 L50,45" />
    <path d="M50,45 L65,45 L65,30 L80,30" />
    <path d="M20,70 L35,70 L35,55 L50,55" />
    <path d="M50,55 L65,55 L65,70 L80,70" />
    
    <!-- Circuit Nodes -->
    <circle cx="35" cy="30" r="2" fill="url(#glowGradient)" />
    <circle cx="65" cy="30" r="2" fill="url(#glowGradient)" />
    <circle cx="35" cy="70" r="2" fill="url(#glowGradient)" />
    <circle cx="65" cy="70" r="2" fill="url(#glowGradient)" />
  </g>

  <!-- Central Smart Vehicle Symbol -->
  <g transform="translate(50,50)">
    <!-- Main Vehicle Body -->
    <rect x="-12" y="-6" width="24" height="8" rx="2" fill="url(#primaryGradient)" />
    <rect x="-15" y="-4" width="6" height="4" rx="1" fill="url(#primaryGradient)" />
    
    <!-- Vehicle Windows -->
    <rect x="-10" y="-5" width="8" height="2" rx="1" fill="url(#centerGlow)" opacity="0.8" />
    <rect x="2" y="-5" width="8" height="2" rx="1" fill="url(#centerGlow)" opacity="0.8" />
    
    <!-- Wheels -->
    <circle cx="-8" cy="4" r="3" fill="url(#primaryGradient)" />
    <circle cx="8" cy="4" r="3" fill="url(#primaryGradient)" />
    <circle cx="-8" cy="4" r="1.5" fill="url(#centerGlow)" />
    <circle cx="8" cy="4" r="1.5" fill="url(#centerGlow)" />

    <!-- Smart Technology Indicators -->
    <circle cx="0" cy="-15" r="2" fill="#00FF00" opacity="0.8" />
    <circle cx="15" cy="0" r="2" fill="#FF4500" opacity="0.8" />
    <circle cx="0" cy="15" r="2" fill="#FF0080" opacity="0.8" />
    <circle cx="-15" cy="0" r="2" fill="#00BFFF" opacity="0.8" />
  </g>
  
  <!-- Corner Connection Points -->
  <g fill="url(#glowGradient)">
    <circle cx="50" cy="8" r="2" />
    <circle cx="82" cy="25" r="2" />
    <circle cx="82" cy="75" r="2" />
    <circle cx="50" cy="92" r="2" />
    <circle cx="18" cy="75" r="2" />
    <circle cx="18" cy="25" r="2" />
  </g>
</svg>